<?xml version="1.0" encoding="utf-8"?>
<!-- Generator: Adobe Illustrator 23.0.6, SVG Export Plug-In . SVG Version: 6.00 Build 0)  -->
<svg version="1.1" id="b6c881ec-80a2-4aeb-a87c-bea63cd39014"
	 xmlns="http://www.w3.org/2000/svg" xmlns:xlink="http://www.w3.org/1999/xlink" x="0px" y="0px" viewBox="0 0 888 460.5"
	 style="enable-background:new 0 0 888 460.5;" xml:space="preserve">
<style type="text/css">
	.st0{fill:#E2E2E2;}
	.st1{fill:#E96B56;}
	.st2{fill:#3F3D56;}
	.st3{fill:#FFFFFF;}
	.st4{fill:#FF7866;}
</style>
<title>factory</title>
<path class="st0" d="M213.7,452.7L191.8,418l21.9,38.5l0,4c1.6,0,3.1-0.1,4.6-0.2l-1.8-50.8l0-0.4l0-0.1l-0.2-4.8l22.9-38
	l-22.9,34.5l-0.1,1l-1.3-38.4l19.7-39.4l-19.8,32.6l-0.9-79.6l0-0.3l0,0.3l-0.4,62.7l-18.8-25.1l18.8,30.5l0.1,34.4l-17.4-33.2
	l17.4,38.2l0,19.1l-25.3-46.2l25.3,52.9L213.7,452.7z"/>
<path class="st0" d="M401.4,452.7L379.5,418l21.9,38.5l0,4c1.6,0,3.1-0.1,4.6-0.2l-1.8-50.8l0-0.4l0-0.1l-0.2-4.8l22.9-38
	l-22.9,34.5l-0.1,1l-1.3-38.4l19.7-39.4l-19.8,32.6l-0.9-79.6l0-0.3l0,0.3l-0.4,62.7l-18.8-25.1l18.8,30.5l0.1,34.4l-17.4-33.2
	l17.4,38.2l0,19.1L376,357.3l25.3,52.9L401.4,452.7z"/>
<path class="st0" d="M25.8,454.9L10,429.9l15.8,27.8l0,2.9c1.1,0,2.2-0.1,3.3-0.1l-1.3-36.7l0-0.3l0-0.1l-0.1-3.5l16.5-27.5
	l-16.5,24.9l0,0.7l-1-27.7l14.2-28.4l-14.3,23.6L25.9,328l0-0.2l0,0.2l-0.3,45.3L12,355.2l13.6,22l0.1,24.8l-12.6-24l12.6,27.6
	l0,13.8L7.4,386.1l18.3,38.2L25.8,454.9z"/>
<path class="st0" d="M857.9,452.7L836.1,418l21.9,38.5l0,4c1.6,0,3.1-0.1,4.6-0.2l-1.8-50.8l0-0.4l0-0.1l-0.2-4.8l22.9-38
	l-22.9,34.5l-0.1,1l-1.3-38.4l19.7-39.4L859,356.5l-0.9-79.6l0-0.3l0,0.3l-0.4,62.7l-18.8-25.1l18.8,30.5l0.1,34.4l-17.4-33.2
	l17.4,38.2l0,19.1l-25.3-46.2l25.3,52.9L857.9,452.7z"/>
<rect x="264.7" y="395.3" class="st1" width="118" height="5"/>
<rect x="258.7" y="390.3" class="st1" width="118" height="5"/>
<rect x="265.7" y="385.3" class="st1" width="118" height="5"/>
<rect x="277.7" y="380.3" class="st1" width="118" height="5"/>
<rect x="177.3" y="358.2" class="st2" width="4.1" height="29.1"/>
<rect x="172.1" y="326.9" transform="matrix(0.9266 -0.3761 0.3761 0.9266 -105.0794 119.6316)" class="st2" width="163.6" height="4.1"/>
<rect x="101.5" y="416.8" class="st2" width="35.6" height="13.9"/>
<rect x="104.8" y="429.1" class="st2" width="175.8" height="15.6"/>
<polygon class="st0" points="133.7,436.9 175.9,436.9 175.9,383.8 144.3,383.8 133.7,410.6 "/>
<rect x="151.3" y="387.1" class="st3" width="18" height="18"/>
<polygon class="st3" points="137.8,405.3 149.2,405.3 149.2,387.3 144.3,387.3 "/>
<rect x="164.4" y="415.4" class="st2" width="4.1" height="7.8"/>
<path class="st2" d="M145.8,406.5h-0.2c-2.1,0-3.9-1.7-3.9-3.9l0,0c0-2.1,1.7-3.9,3.9-3.9h0.2l0,0V406.5L145.8,406.5z"/>
<path class="st2" d="M298.2,436.9H298c-2.1,0-3.9-1.7-3.9-3.9l0,0c0-2.1,1.7-3.9,3.9-3.9h0.2l0,0V436.9L298.2,436.9z"/>
<path class="st0" d="M117.3,429c-6.2,0.1-12,3-15.8,7.8h-8l7.8-21.7l36.3-7.2l-1,28.8H133C129.3,432,123.5,429.1,117.3,429z"/>
<circle class="st2" cx="116.9" cy="442" r="17.8"/>
<circle class="st0" cx="116.9" cy="442" r="9.4"/>
<circle class="st2" cx="277.9" cy="444" r="15.6"/>
<circle class="st0" cx="277.9" cy="444" r="8.2"/>
<rect x="174.6" y="376.4" class="st2" width="8.6" height="62.1"/>
<rect x="174.6" y="427.2" class="st2" width="123.7" height="3.7"/>
<rect x="143.3" y="406.1" class="st2" width="4.1" height="1.6"/>
<path class="st2" d="M324.4,400.3c-0.1-0.1-0.1-0.2-0.1-0.3l5.7-53.4c0-0.2,0.2-0.4,0.4-0.4h0c0.2,0,0.4,0.2,0.4,0.4l6.1,53.3
	c0,0.2-0.1,0.4-0.4,0.5c0,0,0,0,0,0l-11.8,0.1h0C324.6,400.4,324.5,400.4,324.4,400.3z M330.4,350.3l-5.2,49.3l10.8-0.1L330.4,350.3
	z"/>
<path class="st2" d="M101.4,415.5l0.2,0.1c2,0.8,3,3,2.3,5l0,0c-0.8,2-3,3-5,2.3l-0.2-0.1l0,0L101.4,415.5L101.4,415.5z"/>
<rect x="328.5" y="296.3" class="st2" width="4.1" height="59.8"/>
<circle class="st2" cx="179.4" cy="359" r="5.7"/>
<rect x="187.7" y="422.3" class="st1" width="118" height="5"/>
<rect x="194.7" y="417.3" class="st1" width="118" height="5"/>
<rect x="189.7" y="413.3" class="st1" width="118" height="5"/>
<rect x="196.7" y="408.3" class="st1" width="118" height="5"/>
<path class="st0" d="M382.3,122.2c3.8,0,7.4,1.4,10.2,3.8c2.2-0.6,4.6-0.7,6.9-0.3c4.9-7.1,14.7-8.9,21.8-4
	c4.2,2.9,6.8,7.7,6.8,12.9h-61C368.6,127.4,374.9,122.2,382.3,122.2z"/>
<path class="st0" d="M290.6,171.6c3.6,0,7,1.3,9.7,3.6c2.1-0.6,4.3-0.7,6.5-0.3c4.6-6.7,13.9-8.4,20.6-3.8c4,2.8,6.4,7.3,6.4,12.2
	h-57.7C277.5,176.5,283.6,171.6,290.6,171.6z"/>
<path class="st0" d="M198.8,90.2c3.7,0,7.3,1.3,10.1,3.8c2.2-0.6,4.5-0.7,6.8-0.3c4.8-7,14.4-8.8,21.4-3.9c4.2,2.9,6.7,7.6,6.7,12.7
	h-60C185.3,95.3,191.6,90.2,198.8,90.2z"/>
<path class="st0" d="M595,245.2v124.9h48.6V243.5l-11.3,0.4v-25.6h-8.2l-1.3-56.6c3.3-2.2,5.6-7.3,5.6-13.2c0-1.7-0.2-3.4-0.6-5.1
	c3.2-3.5,3.7-8.7,1.1-12.7c4.3,3.8,10.9,3.3,14.7-1c3.8-4.3,3.3-10.9-1-14.7c-0.1-0.1-0.1-0.1-0.2-0.2c5.4-2,8.2-8,6.2-13.4
	s-8-8.2-13.4-6.2c-4.1,1.5-6.8,5.4-6.8,9.8c0,0.2,0,0.3,0,0.5c-5.5-1.7-11.3,1.4-13,6.9c-0.1,0.5-0.3,1-0.3,1.5
	c-4.9-2.9-11.3-1.3-14.3,3.6s-1.3,11.3,3.6,14.3c1,0.6,2,1,3.2,1.2c0,0.1,0,0.2,0,0.2c1,2.9,2.2,5.7,3.7,8.4
	c-0.7,2.2-1.1,4.5-1.1,6.7c0,6,2.3,11.1,5.6,13.2l-1.3,56.6h-8.2v26.5L595,245.2z M625.3,125.9L625.3,125.9c0.2,0,0.3,0,0.5,0
	c0.1,0.3,0.2,0.6,0.3,0.9C625.9,126.5,625.6,126.2,625.3,125.9L625.3,125.9z"/>
<rect x="568.3" y="288.4" class="st4" width="147.5" height="170.6"/>
<rect x="622.1" y="424.3" class="st0" width="39.8" height="34.7"/>
<path class="st0" d="M519.1,64c0,0.1,0,0.3,0,0.4c0,4.7,1.9,9.2,5.3,12.4c0.3,0.6,0.5,1.1,0.9,1.6c-1.2,3.6-1.8,7.4-1.8,11.2
	c0,13.2,6.8,23.9,15.2,23.9s15.2-10.7,15.2-23.9c0-2.9-0.3-5.7-1-8.5c5.4-5.8,6.1-14.5,1.9-21.1c7.2,6.3,18.2,5.6,24.5-1.6
	c6.3-7.2,5.6-18.2-1.6-24.5c-0.1-0.1-0.2-0.2-0.3-0.3c9-3.3,13.6-13.3,10.3-22.3S574.1-2.2,565.1,1.1c-6.8,2.5-11.3,9-11.3,16.3
	c0,0.3,0,0.5,0,0.8c-9.2-2.8-18.9,2.4-21.7,11.5c-0.2,0.8-0.4,1.6-0.6,2.4c-8.2-4.9-18.9-2.2-23.8,6c-4.9,8.2-2.2,18.9,6,23.8
	C515.5,62.9,517.3,63.6,519.1,64z M548.7,52c0.3,0,0.5,0,0.7,0c0.2,0.5,0.3,1,0.5,1.5C549.6,53,549.2,52.5,548.7,52L548.7,52z"/>
<path class="st1" d="M529.9,232h17.4l-0.6-26v0l-2.3-95.4c-3.6,2.2-8,2.2-11.6,0l-2.3,95.4v0L529.9,232z"/>
<polygon class="st1" points="498.1,250.8 498.1,459 579.1,459 579.1,247.9 560.3,248.6 560.3,206 516.9,206 516.9,250.1 "/>
<path class="st0" d="M725.8,64c0,0.1,0,0.3,0,0.4c0,4.7,1.9,9.2,5.3,12.4c0.3,0.6,0.5,1.1,0.9,1.6c-1.2,3.6-1.8,7.4-1.8,11.2
	c0,13.2,6.8,23.9,15.2,23.9s15.2-10.7,15.2-23.9c0-2.9-0.3-5.7-1-8.5c5.4-5.8,6.1-14.5,1.9-21.1c7.2,6.3,18.2,5.6,24.5-1.6
	c6.3-7.2,5.6-18.2-1.6-24.5c-0.1-0.1-0.2-0.2-0.3-0.3c9-3.3,13.6-13.3,10.3-22.3S780.9-2.2,771.9,1.1c-6.8,2.5-11.3,9-11.3,16.3
	c0,0.3,0,0.5,0,0.8c-9.2-2.8-18.9,2.4-21.7,11.5c-0.2,0.8-0.4,1.6-0.6,2.4c-8.2-4.9-18.9-2.2-23.8,6c-4.9,8.2-2.2,18.9,6,23.8
	C722.2,62.9,724,63.6,725.8,64z M755.5,52c0.3,0,0.5,0,0.7,0c0.2,0.5,0.3,1,0.5,1.5C756.3,53,755.9,52.5,755.5,52L755.5,52z"/>
<path class="st1" d="M736.7,232H754l-2.9-121.4c-3.7,1.3-7.8,1.3-11.6,0L736.7,232z"/>
<polygon class="st1" points="704.9,250.8 704.9,459 785.8,459 785.8,247.9 779.2,248.2 767,248.6 767,206 723.7,206 723.7,250.1 "/>
<rect x="664" y="309" class="st3" width="20" height="20"/>
<rect x="632" y="309" class="st3" width="20" height="20"/>
<rect x="600" y="309" class="st3" width="20" height="20"/>
<rect x="664" y="341" class="st3" width="20" height="20"/>
<rect x="632" y="341" class="st3" width="20" height="20"/>
<rect x="600" y="341" class="st3" width="20" height="20"/>
<rect x="664" y="373" class="st3" width="20" height="20"/>
<rect x="632" y="373" class="st3" width="20" height="20"/>
<rect x="600" y="373" class="st3" width="20" height="20"/>
<rect x="528.6" y="301" class="st3" width="20" height="20"/>
<rect x="528.6" y="333" class="st3" width="20" height="20"/>
<rect x="528.6" y="365" class="st3" width="20" height="20"/>
<rect x="528.6" y="397" class="st3" width="20" height="20"/>
<rect x="735.2" y="301" class="st3" width="20" height="20"/>
<rect x="735.2" y="333" class="st3" width="20" height="20"/>
<rect x="735.2" y="365" class="st3" width="20" height="20"/>
<rect x="735.2" y="397" class="st3" width="20" height="20"/>
<rect y="458.3" class="st2" width="888" height="2"/>
</svg>
